<mxfile host="app.diagrams.net" modified="2023-10-03T14:47:55.820Z" agent="Mozilla/5.0 (Windows NT 10.0; Win64; x64) AppleWebKit/537.36 (KHTML, like Gecko) Chrome/116.0.0.0 Safari/537.36 OPR/102.0.0.0" etag="bbRVR46vZmbVco-FVGw0" version="22.0.2" type="device">
  <diagram name="Pagina-1" id="KEP8x5HKg4iiP_pbivcx">
    <mxGraphModel dx="11393" dy="758" grid="1" gridSize="10" guides="1" tooltips="1" connect="1" arrows="1" fold="1" page="1" pageScale="1" pageWidth="10000" pageHeight="10000" math="0" shadow="0">
      <root>
        <mxCell id="0" />
        <mxCell id="1" parent="0" />
        <mxCell id="xgXFjAYwvWhKpXCvutbh-1" value="&lt;u&gt;Attributenlijst&lt;br&gt;&lt;/u&gt;EmployeeType: RegularUser, ServiceDesk&lt;br&gt;Employee :&amp;nbsp; Id, Email, Firstname, Lastname, Username, Password, UserType&lt;br&gt;TicketPriority : Low, Medium, High&lt;br&gt;Ticket : Id, User, Date, TicketPriority, Deadline, Description" style="rounded=1;whiteSpace=wrap;html=1;align=left;" parent="1" vertex="1">
          <mxGeometry width="580" height="90" as="geometry" />
        </mxCell>
        <mxCell id="W9ywfbypfLzu4OarVy8g-1" value="Employee" style="rounded=0;whiteSpace=wrap;html=1;" parent="1" vertex="1">
          <mxGeometry x="280" y="330" width="120" height="60" as="geometry" />
        </mxCell>
        <mxCell id="W9ywfbypfLzu4OarVy8g-2" value="Ticket" style="rounded=0;whiteSpace=wrap;html=1;" parent="1" vertex="1">
          <mxGeometry x="760" y="330" width="120" height="60" as="geometry" />
        </mxCell>
        <mxCell id="W9ywfbypfLzu4OarVy8g-6" value="Creates a" style="shape=rhombus;perimeter=rhombusPerimeter;whiteSpace=wrap;html=1;align=center;" parent="1" vertex="1">
          <mxGeometry x="520" y="330" width="120" height="60" as="geometry" />
        </mxCell>
        <mxCell id="W9ywfbypfLzu4OarVy8g-7" value="" style="endArrow=none;html=1;rounded=0;" parent="1" edge="1">
          <mxGeometry relative="1" as="geometry">
            <mxPoint x="400" y="360" as="sourcePoint" />
            <mxPoint x="520" y="359.5" as="targetPoint" />
          </mxGeometry>
        </mxCell>
        <mxCell id="W9ywfbypfLzu4OarVy8g-8" value="" style="endArrow=none;html=1;rounded=0;" parent="1" edge="1">
          <mxGeometry relative="1" as="geometry">
            <mxPoint x="640" y="360" as="sourcePoint" />
            <mxPoint x="760" y="359.5" as="targetPoint" />
          </mxGeometry>
        </mxCell>
        <mxCell id="W9ywfbypfLzu4OarVy8g-19" value="Updates&amp;nbsp;" style="shape=rhombus;perimeter=rhombusPerimeter;whiteSpace=wrap;html=1;align=center;" parent="1" vertex="1">
          <mxGeometry x="520" y="570" width="120" height="60" as="geometry" />
        </mxCell>
        <mxCell id="W9ywfbypfLzu4OarVy8g-20" value="" style="endArrow=none;html=1;rounded=0;exitX=0.425;exitY=1.05;exitDx=0;exitDy=0;exitPerimeter=0;" parent="1" source="W9ywfbypfLzu4OarVy8g-1" edge="1">
          <mxGeometry relative="1" as="geometry">
            <mxPoint x="360" y="479.5" as="sourcePoint" />
            <mxPoint x="520" y="479.5" as="targetPoint" />
            <Array as="points">
              <mxPoint x="330" y="480" />
            </Array>
          </mxGeometry>
        </mxCell>
        <mxCell id="W9ywfbypfLzu4OarVy8g-21" value="" style="endArrow=none;html=1;rounded=0;entryX=0.5;entryY=1;entryDx=0;entryDy=0;" parent="1" target="W9ywfbypfLzu4OarVy8g-2" edge="1">
          <mxGeometry relative="1" as="geometry">
            <mxPoint x="640" y="479.5" as="sourcePoint" />
            <mxPoint x="800" y="479.5" as="targetPoint" />
            <Array as="points">
              <mxPoint x="820" y="480" />
            </Array>
          </mxGeometry>
        </mxCell>
        <mxCell id="W9ywfbypfLzu4OarVy8g-23" value="// For all users" style="text;html=1;strokeColor=none;fillColor=none;align=center;verticalAlign=middle;whiteSpace=wrap;rounded=0;" parent="1" vertex="1">
          <mxGeometry x="475" y="300" width="210" height="30" as="geometry" />
        </mxCell>
        <mxCell id="W9ywfbypfLzu4OarVy8g-24" value="Reads" style="shape=rhombus;perimeter=rhombusPerimeter;whiteSpace=wrap;html=1;align=center;" parent="1" vertex="1">
          <mxGeometry x="520" y="450" width="120" height="60" as="geometry" />
        </mxCell>
        <mxCell id="W9ywfbypfLzu4OarVy8g-25" value="Deletes" style="shape=rhombus;perimeter=rhombusPerimeter;whiteSpace=wrap;html=1;align=center;" parent="1" vertex="1">
          <mxGeometry x="520" y="690" width="120" height="60" as="geometry" />
        </mxCell>
        <mxCell id="W9ywfbypfLzu4OarVy8g-27" value="" style="endArrow=none;html=1;rounded=0;" parent="1" edge="1">
          <mxGeometry relative="1" as="geometry">
            <mxPoint x="330" y="480" as="sourcePoint" />
            <mxPoint x="520" y="599.5" as="targetPoint" />
            <Array as="points">
              <mxPoint x="330" y="600" />
            </Array>
          </mxGeometry>
        </mxCell>
        <mxCell id="W9ywfbypfLzu4OarVy8g-28" value="" style="endArrow=none;html=1;rounded=0;" parent="1" edge="1">
          <mxGeometry relative="1" as="geometry">
            <mxPoint x="330" y="600" as="sourcePoint" />
            <mxPoint x="520" y="719.5" as="targetPoint" />
            <Array as="points">
              <mxPoint x="330" y="720" />
            </Array>
          </mxGeometry>
        </mxCell>
        <mxCell id="W9ywfbypfLzu4OarVy8g-29" value="" style="endArrow=none;html=1;rounded=0;" parent="1" edge="1">
          <mxGeometry relative="1" as="geometry">
            <mxPoint x="640" y="599.5" as="sourcePoint" />
            <mxPoint x="820" y="480" as="targetPoint" />
            <Array as="points">
              <mxPoint x="820" y="600" />
            </Array>
          </mxGeometry>
        </mxCell>
        <mxCell id="W9ywfbypfLzu4OarVy8g-30" value="" style="endArrow=none;html=1;rounded=0;" parent="1" edge="1">
          <mxGeometry relative="1" as="geometry">
            <mxPoint x="640" y="719.5" as="sourcePoint" />
            <mxPoint x="820" y="600" as="targetPoint" />
            <Array as="points">
              <mxPoint x="820" y="720" />
            </Array>
          </mxGeometry>
        </mxCell>
        <mxCell id="W9ywfbypfLzu4OarVy8g-33" value="// Service Desk users can read everybody&#39;s tickets&lt;br&gt;// Regular users can only read own tickets" style="text;html=1;strokeColor=none;fillColor=none;align=center;verticalAlign=middle;whiteSpace=wrap;rounded=0;" parent="1" vertex="1">
          <mxGeometry x="437.5" y="410" width="285" height="30" as="geometry" />
        </mxCell>
        <mxCell id="W9ywfbypfLzu4OarVy8g-34" value="// Service Desk users can update everybody&#39;s tickets&lt;br&gt;// Regular users can update some properties of own tickets" style="text;html=1;strokeColor=none;fillColor=none;align=center;verticalAlign=middle;whiteSpace=wrap;rounded=0;" parent="1" vertex="1">
          <mxGeometry x="415" y="530" width="330" height="30" as="geometry" />
        </mxCell>
        <mxCell id="W9ywfbypfLzu4OarVy8g-35" value="//Only for Service Desk employees" style="text;html=1;strokeColor=none;fillColor=none;align=center;verticalAlign=middle;whiteSpace=wrap;rounded=0;" parent="1" vertex="1">
          <mxGeometry x="480" y="660" width="200" height="30" as="geometry" />
        </mxCell>
        <mxCell id="W9ywfbypfLzu4OarVy8g-36" value="// Service Desk users can only create new users" style="text;html=1;strokeColor=none;fillColor=none;align=center;verticalAlign=middle;whiteSpace=wrap;rounded=0;" parent="1" vertex="1">
          <mxGeometry x="-50" y="300" width="300" height="30" as="geometry" />
        </mxCell>
        <mxCell id="W9ywfbypfLzu4OarVy8g-41" value="O" style="text;html=1;strokeColor=none;fillColor=none;align=center;verticalAlign=middle;whiteSpace=wrap;rounded=0;" parent="1" vertex="1">
          <mxGeometry x="380" y="330" width="60" height="30" as="geometry" />
        </mxCell>
        <mxCell id="W9ywfbypfLzu4OarVy8g-43" value="T" style="text;html=1;strokeColor=none;fillColor=none;align=center;verticalAlign=middle;whiteSpace=wrap;rounded=0;" parent="1" vertex="1">
          <mxGeometry x="720" y="330" width="60" height="30" as="geometry" />
        </mxCell>
        <mxCell id="W9ywfbypfLzu4OarVy8g-44" value="n" style="text;html=1;strokeColor=none;fillColor=none;align=center;verticalAlign=middle;whiteSpace=wrap;rounded=0;" parent="1" vertex="1">
          <mxGeometry x="480" y="330" width="60" height="30" as="geometry" />
        </mxCell>
        <mxCell id="W9ywfbypfLzu4OarVy8g-45" value="1" style="text;html=1;strokeColor=none;fillColor=none;align=center;verticalAlign=middle;whiteSpace=wrap;rounded=0;" parent="1" vertex="1">
          <mxGeometry x="620" y="330" width="60" height="30" as="geometry" />
        </mxCell>
        <mxCell id="W9ywfbypfLzu4OarVy8g-46" value="O" style="text;html=1;align=center;verticalAlign=middle;resizable=0;points=[];autosize=1;strokeColor=none;fillColor=none;" parent="1" vertex="1">
          <mxGeometry x="330" y="447.5" width="30" height="30" as="geometry" />
        </mxCell>
        <mxCell id="W9ywfbypfLzu4OarVy8g-47" value="O" style="text;html=1;align=center;verticalAlign=middle;resizable=0;points=[];autosize=1;strokeColor=none;fillColor=none;" parent="1" vertex="1">
          <mxGeometry x="790" y="447.5" width="30" height="30" as="geometry" />
        </mxCell>
        <mxCell id="W9ywfbypfLzu4OarVy8g-49" value="n" style="text;html=1;align=center;verticalAlign=middle;resizable=0;points=[];autosize=1;strokeColor=none;fillColor=none;" parent="1" vertex="1">
          <mxGeometry x="490" y="450" width="30" height="30" as="geometry" />
        </mxCell>
        <mxCell id="W9ywfbypfLzu4OarVy8g-50" value="m" style="text;html=1;align=center;verticalAlign=middle;resizable=0;points=[];autosize=1;strokeColor=none;fillColor=none;" parent="1" vertex="1">
          <mxGeometry x="640" y="450" width="30" height="30" as="geometry" />
        </mxCell>
        <mxCell id="W9ywfbypfLzu4OarVy8g-51" value="O" style="text;html=1;align=center;verticalAlign=middle;resizable=0;points=[];autosize=1;strokeColor=none;fillColor=none;" parent="1" vertex="1">
          <mxGeometry x="330" y="568.75" width="30" height="30" as="geometry" />
        </mxCell>
        <mxCell id="W9ywfbypfLzu4OarVy8g-52" value="O" style="text;html=1;align=center;verticalAlign=middle;resizable=0;points=[];autosize=1;strokeColor=none;fillColor=none;" parent="1" vertex="1">
          <mxGeometry x="790" y="570" width="30" height="30" as="geometry" />
        </mxCell>
        <mxCell id="W9ywfbypfLzu4OarVy8g-53" value="n" style="text;html=1;align=center;verticalAlign=middle;resizable=0;points=[];autosize=1;strokeColor=none;fillColor=none;" parent="1" vertex="1">
          <mxGeometry x="495" y="570" width="30" height="30" as="geometry" />
        </mxCell>
        <mxCell id="W9ywfbypfLzu4OarVy8g-54" value="m" style="text;html=1;align=center;verticalAlign=middle;resizable=0;points=[];autosize=1;strokeColor=none;fillColor=none;" parent="1" vertex="1">
          <mxGeometry x="640" y="570" width="30" height="30" as="geometry" />
        </mxCell>
        <mxCell id="W9ywfbypfLzu4OarVy8g-55" value="O" style="text;html=1;align=center;verticalAlign=middle;resizable=0;points=[];autosize=1;strokeColor=none;fillColor=none;" parent="1" vertex="1">
          <mxGeometry x="330" y="690" width="30" height="30" as="geometry" />
        </mxCell>
        <mxCell id="W9ywfbypfLzu4OarVy8g-56" value="O" style="text;html=1;align=center;verticalAlign=middle;resizable=0;points=[];autosize=1;strokeColor=none;fillColor=none;" parent="1" vertex="1">
          <mxGeometry x="790" y="690" width="30" height="30" as="geometry" />
        </mxCell>
        <mxCell id="W9ywfbypfLzu4OarVy8g-57" value="n" style="text;html=1;align=center;verticalAlign=middle;resizable=0;points=[];autosize=1;strokeColor=none;fillColor=none;" parent="1" vertex="1">
          <mxGeometry x="490" y="690" width="30" height="30" as="geometry" />
        </mxCell>
        <mxCell id="W9ywfbypfLzu4OarVy8g-58" value="1" style="text;html=1;align=center;verticalAlign=middle;resizable=0;points=[];autosize=1;strokeColor=none;fillColor=none;" parent="1" vertex="1">
          <mxGeometry x="640" y="690" width="30" height="30" as="geometry" />
        </mxCell>
        <mxCell id="wBclYIyGjHOFUMpKIdYF-1" value="Employee" style="rounded=0;whiteSpace=wrap;html=1;" vertex="1" parent="1">
          <mxGeometry x="-200" y="340" width="120" height="60" as="geometry" />
        </mxCell>
        <mxCell id="wBclYIyGjHOFUMpKIdYF-2" value="Creates a" style="shape=rhombus;perimeter=rhombusPerimeter;whiteSpace=wrap;html=1;align=center;" vertex="1" parent="1">
          <mxGeometry x="40" y="340" width="120" height="60" as="geometry" />
        </mxCell>
        <mxCell id="wBclYIyGjHOFUMpKIdYF-3" value="" style="endArrow=none;html=1;rounded=0;" edge="1" parent="1">
          <mxGeometry relative="1" as="geometry">
            <mxPoint x="-80" y="370" as="sourcePoint" />
            <mxPoint x="40" y="369.5" as="targetPoint" />
          </mxGeometry>
        </mxCell>
        <mxCell id="wBclYIyGjHOFUMpKIdYF-4" value="" style="endArrow=none;html=1;rounded=0;" edge="1" parent="1">
          <mxGeometry relative="1" as="geometry">
            <mxPoint x="160" y="370" as="sourcePoint" />
            <mxPoint x="280" y="369.5" as="targetPoint" />
          </mxGeometry>
        </mxCell>
        <mxCell id="wBclYIyGjHOFUMpKIdYF-8" value="Reads" style="shape=rhombus;perimeter=rhombusPerimeter;whiteSpace=wrap;html=1;align=center;" vertex="1" parent="1">
          <mxGeometry x="40" y="450" width="120" height="60" as="geometry" />
        </mxCell>
        <mxCell id="wBclYIyGjHOFUMpKIdYF-9" value="Updates" style="shape=rhombus;perimeter=rhombusPerimeter;whiteSpace=wrap;html=1;align=center;" vertex="1" parent="1">
          <mxGeometry x="40" y="570" width="120" height="60" as="geometry" />
        </mxCell>
        <mxCell id="wBclYIyGjHOFUMpKIdYF-10" value="Deletes" style="shape=rhombus;perimeter=rhombusPerimeter;whiteSpace=wrap;html=1;align=center;" vertex="1" parent="1">
          <mxGeometry x="40" y="690" width="120" height="60" as="geometry" />
        </mxCell>
        <mxCell id="wBclYIyGjHOFUMpKIdYF-11" value="" style="endArrow=none;html=1;rounded=0;entryX=0.5;entryY=0;entryDx=0;entryDy=0;exitX=0.5;exitY=0;exitDx=0;exitDy=0;" edge="1" parent="1" source="wBclYIyGjHOFUMpKIdYF-1" target="W9ywfbypfLzu4OarVy8g-1">
          <mxGeometry relative="1" as="geometry">
            <mxPoint x="160" y="280" as="sourcePoint" />
            <mxPoint x="320" y="280" as="targetPoint" />
            <Array as="points">
              <mxPoint x="-140" y="240" />
              <mxPoint x="100" y="240" />
              <mxPoint x="340" y="240" />
            </Array>
          </mxGeometry>
        </mxCell>
        <mxCell id="wBclYIyGjHOFUMpKIdYF-12" value="// same entity, presented like this for clarity" style="text;html=1;align=center;verticalAlign=middle;resizable=0;points=[];autosize=1;strokeColor=none;fillColor=none;" vertex="1" parent="1">
          <mxGeometry x="-25" y="210" width="250" height="30" as="geometry" />
        </mxCell>
        <mxCell id="wBclYIyGjHOFUMpKIdYF-13" value="" style="endArrow=none;html=1;rounded=0;exitX=0.5;exitY=1;exitDx=0;exitDy=0;" edge="1" parent="1" source="wBclYIyGjHOFUMpKIdYF-1">
          <mxGeometry relative="1" as="geometry">
            <mxPoint x="-120" y="479" as="sourcePoint" />
            <mxPoint x="40" y="479" as="targetPoint" />
            <Array as="points">
              <mxPoint x="-140" y="479" />
            </Array>
          </mxGeometry>
        </mxCell>
        <mxCell id="wBclYIyGjHOFUMpKIdYF-14" value="" style="endArrow=none;html=1;rounded=0;" edge="1" parent="1">
          <mxGeometry relative="1" as="geometry">
            <mxPoint x="-140" y="480" as="sourcePoint" />
            <mxPoint x="40" y="599" as="targetPoint" />
            <Array as="points">
              <mxPoint x="-140" y="599" />
            </Array>
          </mxGeometry>
        </mxCell>
        <mxCell id="wBclYIyGjHOFUMpKIdYF-15" value="" style="endArrow=none;html=1;rounded=0;" edge="1" parent="1">
          <mxGeometry relative="1" as="geometry">
            <mxPoint x="-140" y="600" as="sourcePoint" />
            <mxPoint x="40" y="720" as="targetPoint" />
            <Array as="points">
              <mxPoint x="-140" y="720" />
            </Array>
          </mxGeometry>
        </mxCell>
        <mxCell id="wBclYIyGjHOFUMpKIdYF-17" value="" style="endArrow=none;html=1;rounded=0;" edge="1" parent="1">
          <mxGeometry relative="1" as="geometry">
            <mxPoint x="160" y="479.5" as="sourcePoint" />
            <mxPoint x="410" y="480" as="targetPoint" />
          </mxGeometry>
        </mxCell>
        <mxCell id="wBclYIyGjHOFUMpKIdYF-18" value="" style="endArrow=none;html=1;rounded=0;" edge="1" parent="1">
          <mxGeometry relative="1" as="geometry">
            <mxPoint x="160" y="599.5" as="sourcePoint" />
            <mxPoint x="410" y="600" as="targetPoint" />
          </mxGeometry>
        </mxCell>
        <mxCell id="wBclYIyGjHOFUMpKIdYF-19" value="" style="endArrow=none;html=1;rounded=0;" edge="1" parent="1">
          <mxGeometry relative="1" as="geometry">
            <mxPoint x="160" y="719" as="sourcePoint" />
            <mxPoint x="410" y="719.5" as="targetPoint" />
          </mxGeometry>
        </mxCell>
        <mxCell id="wBclYIyGjHOFUMpKIdYF-20" value="// Service Desk users can view all users&lt;br&gt;// Regular users can view own properties" style="text;html=1;align=center;verticalAlign=middle;resizable=0;points=[];autosize=1;strokeColor=none;fillColor=none;" vertex="1" parent="1">
          <mxGeometry x="-20" y="410" width="240" height="40" as="geometry" />
        </mxCell>
        <mxCell id="wBclYIyGjHOFUMpKIdYF-21" value="// Service Desk users can update all properties of all users&lt;br&gt;// Regular users can update some of own properties" style="text;html=1;align=center;verticalAlign=middle;resizable=0;points=[];autosize=1;strokeColor=none;fillColor=none;" vertex="1" parent="1">
          <mxGeometry x="-65" y="525" width="330" height="40" as="geometry" />
        </mxCell>
        <mxCell id="wBclYIyGjHOFUMpKIdYF-22" value="// Only Service Desk users can delete other users" style="text;html=1;align=center;verticalAlign=middle;resizable=0;points=[];autosize=1;strokeColor=none;fillColor=none;" vertex="1" parent="1">
          <mxGeometry x="-45" y="660" width="290" height="30" as="geometry" />
        </mxCell>
        <mxCell id="wBclYIyGjHOFUMpKIdYF-23" value="O" style="text;html=1;align=center;verticalAlign=middle;resizable=0;points=[];autosize=1;strokeColor=none;fillColor=none;" vertex="1" parent="1">
          <mxGeometry x="250" y="340" width="30" height="30" as="geometry" />
        </mxCell>
        <mxCell id="wBclYIyGjHOFUMpKIdYF-24" value="n" style="text;html=1;align=center;verticalAlign=middle;resizable=0;points=[];autosize=1;strokeColor=none;fillColor=none;" vertex="1" parent="1">
          <mxGeometry x="160" y="340" width="30" height="30" as="geometry" />
        </mxCell>
        <mxCell id="wBclYIyGjHOFUMpKIdYF-25" value="1" style="text;html=1;align=center;verticalAlign=middle;resizable=0;points=[];autosize=1;strokeColor=none;fillColor=none;" vertex="1" parent="1">
          <mxGeometry x="10" y="340" width="30" height="30" as="geometry" />
        </mxCell>
        <mxCell id="wBclYIyGjHOFUMpKIdYF-26" value="T" style="text;html=1;align=center;verticalAlign=middle;resizable=0;points=[];autosize=1;strokeColor=none;fillColor=none;" vertex="1" parent="1">
          <mxGeometry x="-75" y="338" width="30" height="30" as="geometry" />
        </mxCell>
        <mxCell id="wBclYIyGjHOFUMpKIdYF-28" value="" style="endArrow=none;html=1;rounded=0;" edge="1" parent="1">
          <mxGeometry relative="1" as="geometry">
            <mxPoint x="-145" y="479.5" as="sourcePoint" />
            <mxPoint x="-25" y="479" as="targetPoint" />
          </mxGeometry>
        </mxCell>
        <mxCell id="wBclYIyGjHOFUMpKIdYF-29" value="1" style="text;html=1;align=center;verticalAlign=middle;resizable=0;points=[];autosize=1;strokeColor=none;fillColor=none;" vertex="1" parent="1">
          <mxGeometry x="10" y="447.5" width="30" height="30" as="geometry" />
        </mxCell>
        <mxCell id="wBclYIyGjHOFUMpKIdYF-30" value="T" style="text;html=1;align=center;verticalAlign=middle;resizable=0;points=[];autosize=1;strokeColor=none;fillColor=none;" vertex="1" parent="1">
          <mxGeometry x="-140" y="447.5" width="30" height="30" as="geometry" />
        </mxCell>
        <mxCell id="wBclYIyGjHOFUMpKIdYF-32" value="1" style="text;html=1;align=center;verticalAlign=middle;resizable=0;points=[];autosize=1;strokeColor=none;fillColor=none;" vertex="1" parent="1">
          <mxGeometry x="10" y="568.75" width="30" height="30" as="geometry" />
        </mxCell>
        <mxCell id="wBclYIyGjHOFUMpKIdYF-33" value="T" style="text;html=1;align=center;verticalAlign=middle;resizable=0;points=[];autosize=1;strokeColor=none;fillColor=none;" vertex="1" parent="1">
          <mxGeometry x="-140" y="568.75" width="30" height="30" as="geometry" />
        </mxCell>
        <mxCell id="wBclYIyGjHOFUMpKIdYF-35" value="1" style="text;html=1;align=center;verticalAlign=middle;resizable=0;points=[];autosize=1;strokeColor=none;fillColor=none;" vertex="1" parent="1">
          <mxGeometry x="15" y="690" width="30" height="30" as="geometry" />
        </mxCell>
        <mxCell id="wBclYIyGjHOFUMpKIdYF-36" value="T" style="text;html=1;align=center;verticalAlign=middle;resizable=0;points=[];autosize=1;strokeColor=none;fillColor=none;" vertex="1" parent="1">
          <mxGeometry x="-135" y="690" width="30" height="30" as="geometry" />
        </mxCell>
        <mxCell id="wBclYIyGjHOFUMpKIdYF-37" value="O" style="text;html=1;align=center;verticalAlign=middle;resizable=0;points=[];autosize=1;strokeColor=none;fillColor=none;" vertex="1" parent="1">
          <mxGeometry x="300" y="447.5" width="30" height="30" as="geometry" />
        </mxCell>
        <mxCell id="wBclYIyGjHOFUMpKIdYF-38" value="n" style="text;html=1;align=center;verticalAlign=middle;resizable=0;points=[];autosize=1;strokeColor=none;fillColor=none;" vertex="1" parent="1">
          <mxGeometry x="160" y="450" width="30" height="30" as="geometry" />
        </mxCell>
        <mxCell id="wBclYIyGjHOFUMpKIdYF-39" value="O" style="text;html=1;align=center;verticalAlign=middle;resizable=0;points=[];autosize=1;strokeColor=none;fillColor=none;" vertex="1" parent="1">
          <mxGeometry x="300" y="568" width="30" height="30" as="geometry" />
        </mxCell>
        <mxCell id="wBclYIyGjHOFUMpKIdYF-40" value="n" style="text;html=1;align=center;verticalAlign=middle;resizable=0;points=[];autosize=1;strokeColor=none;fillColor=none;" vertex="1" parent="1">
          <mxGeometry x="160" y="568" width="30" height="30" as="geometry" />
        </mxCell>
        <mxCell id="wBclYIyGjHOFUMpKIdYF-41" value="O" style="text;html=1;align=center;verticalAlign=middle;resizable=0;points=[];autosize=1;strokeColor=none;fillColor=none;" vertex="1" parent="1">
          <mxGeometry x="300" y="690" width="30" height="30" as="geometry" />
        </mxCell>
        <mxCell id="wBclYIyGjHOFUMpKIdYF-42" value="n" style="text;html=1;align=center;verticalAlign=middle;resizable=0;points=[];autosize=1;strokeColor=none;fillColor=none;" vertex="1" parent="1">
          <mxGeometry x="160" y="690" width="30" height="30" as="geometry" />
        </mxCell>
      </root>
    </mxGraphModel>
  </diagram>
</mxfile>
